<mxfile host="app.diagrams.net" modified="2023-03-13T09:31:13.214Z" agent="5.0 (Windows NT 10.0; Win64; x64) AppleWebKit/537.36 (KHTML, like Gecko) Chrome/111.0.0.0 Safari/537.36" etag="8eH301MryCcOPqjqCc-I" version="21.0.6" type="github">
  <diagram name="Page-1" id="udqCaN7Gq3vKLg3-HN35">
    <mxGraphModel dx="7170" dy="3495" grid="1" gridSize="10" guides="1" tooltips="1" connect="1" arrows="1" fold="1" page="1" pageScale="1" pageWidth="1400" pageHeight="850" math="0" shadow="0">
      <root>
        <mxCell id="0" />
        <mxCell id="1" parent="0" />
        <mxCell id="yd9bkMRgVebcNJ7dmM1L-2" parent="0" />
        <mxCell id="yd9bkMRgVebcNJ7dmM1L-3" value="" style="fillColor=none;strokeColor=none;pointerEvents=0;fontStyle=0;html=1;whiteSpace=wrap;container=1;collapsible=0;childLayout=stackLayout;resizeParent=1;dropTarget=0;horizontalStack=0;fontSize=13;spacing=0;strokeOpacity=100;rounded=1;absoluteArcSize=1;arcSize=12;horizontal=0;strokeWidth=1.5;" vertex="1" parent="yd9bkMRgVebcNJ7dmM1L-2">
          <mxGeometry x="330" y="296" width="2475" height="990" isRotated="1" as="geometry" />
        </mxCell>
        <mxCell id="yd9bkMRgVebcNJ7dmM1L-4" value="Klant" style="swimlane;html=1;whiteSpace=wrap;container=1;connectable=0;collapsible=0;startSize=30;dropTarget=0;rounded=0;horizontal=0;spacing=0;strokeColor=#b2b2b2;strokeOpacity=100;strokeWidth=1.5;fontSize=15;fontColor=#ffffff;fontStyle=3;fillColor=#3c41c2;swimlaneFillColor=#f2f3f5;" vertex="1" parent="yd9bkMRgVebcNJ7dmM1L-3">
          <mxGeometry width="2475" height="120" as="geometry" />
        </mxCell>
        <mxCell id="yd9bkMRgVebcNJ7dmM1L-5" value="Database/Systeem" style="swimlane;html=1;whiteSpace=wrap;container=1;connectable=0;collapsible=0;startSize=30;dropTarget=0;rounded=0;horizontal=0;spacing=0;strokeColor=#b2b2b2;strokeOpacity=100;strokeWidth=1.5;fontSize=15;fontColor=#ffffff;fontStyle=1;fillColor=#3aa6dd;swimlaneFillColor=#ffffff;" vertex="1" parent="yd9bkMRgVebcNJ7dmM1L-3">
          <mxGeometry y="120" width="2475" height="270" as="geometry" />
        </mxCell>
        <mxCell id="yd9bkMRgVebcNJ7dmM1L-6" value="Klantenservice/Admin" style="swimlane;html=1;whiteSpace=wrap;container=1;connectable=0;collapsible=0;startSize=30;dropTarget=0;rounded=0;horizontal=0;spacing=0;strokeColor=#b2b2b2;strokeOpacity=100;strokeWidth=1.5;fontSize=15;fontColor=#ffffff;fontStyle=1;fillColor=#4f4fe0;swimlaneFillColor=#ffffff;" vertex="1" parent="yd9bkMRgVebcNJ7dmM1L-3">
          <mxGeometry y="390" width="2475" height="360" as="geometry" />
        </mxCell>
        <mxCell id="yd9bkMRgVebcNJ7dmM1L-7" value="Magazijn" style="swimlane;html=1;whiteSpace=wrap;container=1;connectable=0;collapsible=0;startSize=30;dropTarget=0;rounded=0;horizontal=0;spacing=0;strokeColor=#b2b2b2;strokeOpacity=100;strokeWidth=1.5;fontSize=15;fontColor=#ffffff;fontStyle=1;fillColor=#3aa6dd;swimlaneFillColor=#ffffff;" vertex="1" parent="yd9bkMRgVebcNJ7dmM1L-3">
          <mxGeometry y="750" width="2475" height="240" as="geometry" />
        </mxCell>
        <mxCell id="yd9bkMRgVebcNJ7dmM1L-8" value="" style="fillColor=none;strokeColor=none;pointerEvents=0;fontStyle=0;html=1;whiteSpace=wrap;container=1;collapsible=0;childLayout=stackLayout;resizeParent=1;dropTarget=0;fontSize=13;spacing=0;strokeOpacity=100;rounded=1;absoluteArcSize=1;arcSize=12;strokeWidth=1.5;" vertex="1" parent="yd9bkMRgVebcNJ7dmM1L-2">
          <mxGeometry x="840" y="1550" width="1050" height="705" as="geometry" />
        </mxCell>
        <mxCell id="yd9bkMRgVebcNJ7dmM1L-9" value="Gebruiker" style="swimlane;html=1;whiteSpace=wrap;container=1;connectable=0;collapsible=0;startSize=30;dropTarget=0;rounded=0;spacing=0;strokeColor=#b2b2b2;strokeOpacity=100;strokeWidth=1.5;fontSize=15;fontColor=#ffffff;fontStyle=3;fillColor=#3c41c2;swimlaneFillColor=#f2f3f5;" vertex="1" parent="yd9bkMRgVebcNJ7dmM1L-8">
          <mxGeometry width="330" height="705" as="geometry" />
        </mxCell>
        <mxCell id="yd9bkMRgVebcNJ7dmM1L-10" value="Storingsysteem" style="swimlane;html=1;whiteSpace=wrap;container=1;connectable=0;collapsible=0;startSize=30;dropTarget=0;rounded=0;spacing=0;strokeColor=#b2b2b2;strokeOpacity=100;strokeWidth=1.5;fontSize=15;fontColor=#ffffff;fontStyle=1;fillColor=#3aa6dd;swimlaneFillColor=#ffffff;" vertex="1" parent="yd9bkMRgVebcNJ7dmM1L-8">
          <mxGeometry x="330" width="360" height="705" as="geometry" />
        </mxCell>
        <mxCell id="yd9bkMRgVebcNJ7dmM1L-11" value="Database" style="swimlane;html=1;whiteSpace=wrap;container=1;connectable=0;collapsible=0;startSize=30;dropTarget=0;rounded=0;spacing=0;strokeColor=#b2b2b2;strokeOpacity=100;strokeWidth=1.5;fontSize=15;fontColor=#ffffff;fontStyle=1;fillColor=#4f4fe0;swimlaneFillColor=#ffffff;" vertex="1" parent="yd9bkMRgVebcNJ7dmM1L-8">
          <mxGeometry x="690" width="360" height="705" as="geometry" />
        </mxCell>
        <mxCell id="yd9bkMRgVebcNJ7dmM1L-12" value="" style="group;dropTarget=0;pointerEvents=0;" vertex="1" parent="yd9bkMRgVebcNJ7dmM1L-2">
          <mxGeometry x="1180" y="191" width="640" height="45" as="geometry" />
        </mxCell>
        <UserObject label="%filename%" placeholders="1" id="yd9bkMRgVebcNJ7dmM1L-13">
          <mxCell style="points=[[0.245,0.967,0],[0.767,0.967,0]];html=1;overflow=block;blockSpacing=1;whiteSpace=wrap;fontSize=19.7;fontColor=#a9afb8;fontStyle=1;align=center;spacingLeft=7;spacingRight=7;spacingTop=2;spacing=3;strokeOpacity=0;fillOpacity=0;rounded=1;absoluteArcSize=1;arcSize=12;fillColor=#ffffff;strokeWidth=1.5;lucidId=Zp5B.o~4uqJS;" vertex="1" parent="yd9bkMRgVebcNJ7dmM1L-12">
            <mxGeometry width="640" height="31" as="geometry" />
          </mxCell>
        </UserObject>
        <UserObject label="%creatorName%  |  %date{mmmm d, yyyy}%" placeholders="1" id="yd9bkMRgVebcNJ7dmM1L-14">
          <mxCell style="html=1;overflow=block;blockSpacing=1;whiteSpace=wrap;fontSize=11.5;fontColor=#a9afb8;align=center;spacingLeft=7;spacingRight=7;spacingTop=2;spacing=3;strokeOpacity=0;fillOpacity=0;rounded=1;absoluteArcSize=1;arcSize=12;fillColor=#ffffff;strokeWidth=1.5;lucidId=Zp5BFBWkdzuN;" vertex="1" parent="yd9bkMRgVebcNJ7dmM1L-12">
            <mxGeometry y="31" width="640" height="14" as="geometry" />
          </mxCell>
        </UserObject>
        <mxCell id="yd9bkMRgVebcNJ7dmM1L-15" value="" style="html=1;jettySize=18;whiteSpace=wrap;fontSize=13;fontFamily=Helvetica;strokeColor=#a9afb8;strokeOpacity=100;strokeWidth=1.5;rounded=0;startArrow=none;endArrow=none;exitX=0.245;exitY=0.967;exitPerimeter=0;entryX=0.767;entryY=0.967;entryPerimeter=0;lucidId=Zp5B3QMqSILV;" edge="1" parent="yd9bkMRgVebcNJ7dmM1L-12" source="yd9bkMRgVebcNJ7dmM1L-13" target="yd9bkMRgVebcNJ7dmM1L-13">
          <mxGeometry width="100" height="100" relative="1" as="geometry">
            <Array as="points">
              <mxPoint x="157" y="50" generated="1" />
              <mxPoint x="491" y="50" generated="1" />
            </Array>
          </mxGeometry>
        </mxCell>
        <mxCell id="yd9bkMRgVebcNJ7dmM1L-16" value="Orderbevestiging wordt verzonden en status op betaald" style="html=1;overflow=block;blockSpacing=1;whiteSpace=wrap;rounded=1;arcSize=50;fontSize=14.7;fontColor=#ffffff;spacing=3.8;strokeOpacity=0;fillOpacity=100;fillColor=#3c41c2;strokeWidth=0.8;lucidId=C7cox1tg13cQ;" vertex="1" parent="yd9bkMRgVebcNJ7dmM1L-2">
          <mxGeometry x="653" y="581" width="165" height="78" as="geometry" />
        </mxCell>
        <mxCell id="yd9bkMRgVebcNJ7dmM1L-17" value="Heeft een online Klant betaald?" style="html=1;overflow=block;blockSpacing=1;whiteSpace=wrap;rhombus;fontSize=14.7;fontColor=#ffffff;align=center;spacing=3.8;strokeColor=#333333;strokeOpacity=100;fillOpacity=100;rounded=1;absoluteArcSize=1;arcSize=12;fillColor=#489bfc;strokeWidth=0.8;lucidId=rhdoeqafXLIC;" vertex="1" parent="yd9bkMRgVebcNJ7dmM1L-2">
          <mxGeometry x="428" y="731" width="150" height="135" as="geometry" />
        </mxCell>
        <mxCell id="yd9bkMRgVebcNJ7dmM1L-18" value="Order opgeslagen" style="html=1;overflow=block;blockSpacing=1;whiteSpace=wrap;rounded=1;arcSize=50;fontSize=13;fontColor=#ffffff;fontStyle=2;spacing=3.8;strokeOpacity=0;fillOpacity=100;fillColor=#3c41c2;strokeWidth=0.8;lucidId=lxdo0sqmmd~j;" vertex="1" parent="yd9bkMRgVebcNJ7dmM1L-2">
          <mxGeometry x="413" y="581" width="180" height="79" as="geometry" />
        </mxCell>
        <mxCell id="yd9bkMRgVebcNJ7dmM1L-19" value="" style="html=1;jettySize=18;whiteSpace=wrap;fontSize=13;strokeColor=#333333;strokeOpacity=100;strokeWidth=0.8;rounded=1;arcSize=24;edgeStyle=orthogonalEdgeStyle;startArrow=none;endArrow=block;endFill=1;exitX=0.5;exitY=1.005;exitPerimeter=0;entryX=0.5;entryY=0.017;entryPerimeter=0;lucidId=yxdog2FH4nMJ;" edge="1" parent="yd9bkMRgVebcNJ7dmM1L-2" source="yd9bkMRgVebcNJ7dmM1L-32" target="yd9bkMRgVebcNJ7dmM1L-31">
          <mxGeometry width="100" height="100" relative="1" as="geometry">
            <Array as="points" />
          </mxGeometry>
        </mxCell>
        <mxCell id="yd9bkMRgVebcNJ7dmM1L-20" value="" style="html=1;jettySize=18;whiteSpace=wrap;fontSize=13;strokeColor=#333333;strokeOpacity=100;strokeWidth=0.8;rounded=1;arcSize=24;edgeStyle=orthogonalEdgeStyle;startArrow=none;endArrow=block;endFill=1;exitX=0.5;exitY=0.983;exitPerimeter=0;entryX=0.5;entryY=0;entryPerimeter=0;lucidId=bKsoJkMltvMn;" edge="1" parent="yd9bkMRgVebcNJ7dmM1L-2" source="yd9bkMRgVebcNJ7dmM1L-31" target="yd9bkMRgVebcNJ7dmM1L-18">
          <mxGeometry width="100" height="100" relative="1" as="geometry">
            <Array as="points" />
          </mxGeometry>
        </mxCell>
        <mxCell id="yd9bkMRgVebcNJ7dmM1L-21" value="Ja" style="text;html=1;resizable=0;labelBackgroundColor=default;align=center;verticalAlign=middle;fontColor=#333333;fontSize=13;" vertex="1" parent="yd9bkMRgVebcNJ7dmM1L-20">
          <mxGeometry relative="1" as="geometry" />
        </mxCell>
        <mxCell id="yd9bkMRgVebcNJ7dmM1L-22" value="" style="html=1;jettySize=18;whiteSpace=wrap;fontSize=13;fontColor=#333333;align=center;strokeColor=#333333;strokeOpacity=100;strokeWidth=0.8;rounded=1;arcSize=24;edgeStyle=orthogonalEdgeStyle;startArrow=none;endArrow=block;endFill=1;exitX=0.5;exitY=0.986;exitPerimeter=0;entryX=0.5;entryY=0;entryPerimeter=0;lucidId=dydooSBf7rk.;" edge="1" parent="yd9bkMRgVebcNJ7dmM1L-2" source="yd9bkMRgVebcNJ7dmM1L-17" target="yd9bkMRgVebcNJ7dmM1L-26">
          <mxGeometry width="100" height="100" relative="1" as="geometry">
            <Array as="points" />
          </mxGeometry>
        </mxCell>
        <mxCell id="yd9bkMRgVebcNJ7dmM1L-23" value="Nee" style="text;html=1;resizable=0;labelBackgroundColor=default;align=center;verticalAlign=middle;fontColor=#333333;fontSize=13;" vertex="1" parent="yd9bkMRgVebcNJ7dmM1L-22">
          <mxGeometry x="0.46584831939675686" relative="1" as="geometry" />
        </mxCell>
        <mxCell id="yd9bkMRgVebcNJ7dmM1L-24" value="" style="html=1;jettySize=18;whiteSpace=wrap;fontSize=13;fontColor=#333333;align=center;strokeColor=#333333;strokeOpacity=100;strokeWidth=0.8;rounded=1;arcSize=24;edgeStyle=orthogonalEdgeStyle;startArrow=none;endArrow=block;endFill=1;exitX=0.985;exitY=0.5;exitPerimeter=0;entryX=0.5;entryY=1;entryPerimeter=0;lucidId=kydosZcXZU-W;" edge="1" parent="yd9bkMRgVebcNJ7dmM1L-2" source="yd9bkMRgVebcNJ7dmM1L-17" target="yd9bkMRgVebcNJ7dmM1L-16">
          <mxGeometry width="100" height="100" relative="1" as="geometry">
            <Array as="points" />
          </mxGeometry>
        </mxCell>
        <mxCell id="yd9bkMRgVebcNJ7dmM1L-25" value="Ja" style="text;html=1;resizable=0;labelBackgroundColor=default;align=center;verticalAlign=middle;fontColor=#333333;fontSize=13;" vertex="1" parent="yd9bkMRgVebcNJ7dmM1L-24">
          <mxGeometry x="-0.1865123413841826" relative="1" as="geometry" />
        </mxCell>
        <mxCell id="yd9bkMRgVebcNJ7dmM1L-26" value="Wacht op klant en zet daarna de status op betaald" style="html=1;overflow=block;blockSpacing=1;whiteSpace=wrap;rounded=1;arcSize=50;fontSize=13;fontColor=#ffffff;align=center;spacing=3.8;strokeOpacity=0;fillOpacity=100;fillColor=#3c41c2;strokeWidth=0.8;lucidId=PnsoDO01QQax;" vertex="1" parent="yd9bkMRgVebcNJ7dmM1L-2">
          <mxGeometry x="405" y="911" width="195" height="105" as="geometry" />
        </mxCell>
        <mxCell id="yd9bkMRgVebcNJ7dmM1L-27" value="" style="html=1;jettySize=18;whiteSpace=wrap;fontSize=13;strokeColor=#333333;strokeOpacity=100;strokeWidth=0.8;rounded=1;arcSize=24;edgeStyle=orthogonalEdgeStyle;startArrow=none;endArrow=block;endFill=1;exitX=0.5;exitY=1;exitPerimeter=0;entryX=0.5;entryY=0.014;entryPerimeter=0;lucidId=YysoCOgSKGxk;" edge="1" parent="yd9bkMRgVebcNJ7dmM1L-2" source="yd9bkMRgVebcNJ7dmM1L-18" target="yd9bkMRgVebcNJ7dmM1L-17">
          <mxGeometry width="100" height="100" relative="1" as="geometry">
            <Array as="points" />
          </mxGeometry>
        </mxCell>
        <mxCell id="yd9bkMRgVebcNJ7dmM1L-28" value="Pickt de order en pakt order in" style="html=1;overflow=block;blockSpacing=1;whiteSpace=wrap;rounded=1;arcSize=50;fontSize=13;fontColor=#ffffff;align=center;spacing=3.8;strokeOpacity=0;fillOpacity=100;fillColor=#3c41c2;strokeWidth=0.8;lucidId=IBso2jjMC-bR;" vertex="1" parent="yd9bkMRgVebcNJ7dmM1L-2">
          <mxGeometry x="405" y="1136" width="180" height="90" as="geometry" />
        </mxCell>
        <mxCell id="yd9bkMRgVebcNJ7dmM1L-29" value="" style="html=1;jettySize=18;whiteSpace=wrap;fontSize=13;strokeColor=#333333;strokeOpacity=100;strokeWidth=0.8;rounded=1;arcSize=24;edgeStyle=orthogonalEdgeStyle;startArrow=none;endArrow=block;endFill=1;lucidId=CFsof18CgOE0;" edge="1" parent="yd9bkMRgVebcNJ7dmM1L-2">
          <mxGeometry width="100" height="100" relative="1" as="geometry">
            <Array as="points" />
            <mxPoint x="1043" y="601" as="sourcePoint" />
            <mxPoint x="1080" y="601" as="targetPoint" />
          </mxGeometry>
        </mxCell>
        <mxCell id="yd9bkMRgVebcNJ7dmM1L-30" value="" style="html=1;jettySize=18;whiteSpace=wrap;fontSize=13;strokeColor=#333333;strokeOpacity=100;strokeWidth=0.8;rounded=1;arcSize=24;edgeStyle=orthogonalEdgeStyle;startArrow=none;endArrow=block;endFill=1;exitX=1;exitY=0.5;exitPerimeter=0;entryX=0.5;entryY=1;entryPerimeter=0;lucidId=nGso_QMss6.y;" edge="1" parent="yd9bkMRgVebcNJ7dmM1L-2" source="yd9bkMRgVebcNJ7dmM1L-26" target="yd9bkMRgVebcNJ7dmM1L-16">
          <mxGeometry width="100" height="100" relative="1" as="geometry">
            <Array as="points" />
          </mxGeometry>
        </mxCell>
        <mxCell id="yd9bkMRgVebcNJ7dmM1L-31" value="Is de order op voorraad?" style="html=1;overflow=block;blockSpacing=1;whiteSpace=wrap;rhombus;fontSize=13;fontColor=#ffffff;align=center;spacing=3.8;strokeColor=#333333;strokeOpacity=100;fillOpacity=100;rounded=1;absoluteArcSize=1;arcSize=12;fillColor=#489bfc;strokeWidth=0.8;lucidId=bKsoBlcb.BdF;" vertex="1" parent="yd9bkMRgVebcNJ7dmM1L-2">
          <mxGeometry x="439" y="445" width="128" height="109" as="geometry" />
        </mxCell>
        <mxCell id="yd9bkMRgVebcNJ7dmM1L-32" value="Klant plaats order" style="html=1;overflow=block;blockSpacing=1;whiteSpace=wrap;ellipse;fontSize=13;fontColor=#ffffff;fontStyle=2;align=center;spacing=3.8;strokeColor=#333333;strokeOpacity=100;fillOpacity=100;rounded=1;absoluteArcSize=1;arcSize=12;fillColor=#3c41c2;strokeWidth=0.8;lucidId=28soVd044nyk;" vertex="1" parent="yd9bkMRgVebcNJ7dmM1L-2">
          <mxGeometry x="412" y="320" width="180" height="71" as="geometry" />
        </mxCell>
        <mxCell id="yd9bkMRgVebcNJ7dmM1L-33" value="Inloggen" style="html=1;overflow=block;blockSpacing=1;whiteSpace=wrap;rounded=1;arcSize=50;fontSize=13;fontColor=#ffffff;align=center;spacing=3.8;strokeOpacity=0;fillOpacity=100;fillColor=#3c41c2;strokeWidth=0.8;lucidId=KyOwqpDYbYeP;" vertex="1" parent="yd9bkMRgVebcNJ7dmM1L-2">
          <mxGeometry x="915" y="1700" width="165" height="75" as="geometry" />
        </mxCell>
        <mxCell id="yd9bkMRgVebcNJ7dmM1L-34" value="Check de accountgegevens" style="html=1;overflow=block;blockSpacing=1;whiteSpace=wrap;rounded=1;arcSize=50;fontSize=13;fontColor=#ffffff;align=center;spacing=3.8;strokeOpacity=0;fillOpacity=100;fillColor=#3c41c2;strokeWidth=0.8;lucidId=KzOwG5VSaROI;" vertex="1" parent="yd9bkMRgVebcNJ7dmM1L-2">
          <mxGeometry x="1253" y="1700" width="165" height="75" as="geometry" />
        </mxCell>
        <mxCell id="yd9bkMRgVebcNJ7dmM1L-35" value="Kloppen de accountgegevens?" style="html=1;overflow=block;blockSpacing=1;whiteSpace=wrap;rhombus;fontSize=13;fontColor=#ffffff;align=center;spacing=3.8;strokeColor=#333333;strokeOpacity=100;fillOpacity=100;rounded=1;absoluteArcSize=1;arcSize=12;fillColor=#489bfc;strokeWidth=0.8;lucidId=OBOwLcokszDo;" vertex="1" parent="yd9bkMRgVebcNJ7dmM1L-2">
          <mxGeometry x="1628" y="1674" width="165" height="128" as="geometry" />
        </mxCell>
        <mxCell id="yd9bkMRgVebcNJ7dmM1L-36" value="" style="html=1;jettySize=18;whiteSpace=wrap;fontSize=13;strokeColor=#333333;strokeOpacity=100;strokeWidth=0.8;rounded=1;arcSize=24;edgeStyle=orthogonalEdgeStyle;startArrow=none;endArrow=block;endFill=1;exitX=1;exitY=0.5;exitPerimeter=0;entryX=0.016;entryY=0.5;entryPerimeter=0;lucidId=WBOwAdMW0iaY;" edge="1" parent="yd9bkMRgVebcNJ7dmM1L-2" source="yd9bkMRgVebcNJ7dmM1L-34" target="yd9bkMRgVebcNJ7dmM1L-35">
          <mxGeometry width="100" height="100" relative="1" as="geometry">
            <Array as="points" />
          </mxGeometry>
        </mxCell>
        <mxCell id="yd9bkMRgVebcNJ7dmM1L-37" value="" style="html=1;jettySize=18;whiteSpace=wrap;fontSize=13;strokeColor=#333333;strokeOpacity=100;strokeWidth=0.8;rounded=1;arcSize=24;edgeStyle=orthogonalEdgeStyle;startArrow=none;endArrow=block;endFill=1;exitX=1;exitY=0.5;exitPerimeter=0;entryX=0;entryY=0.5;entryPerimeter=0;lucidId=eCOwc9mOPHFt;" edge="1" parent="yd9bkMRgVebcNJ7dmM1L-2" source="yd9bkMRgVebcNJ7dmM1L-33" target="yd9bkMRgVebcNJ7dmM1L-34">
          <mxGeometry width="100" height="100" relative="1" as="geometry">
            <Array as="points" />
          </mxGeometry>
        </mxCell>
        <mxCell id="yd9bkMRgVebcNJ7dmM1L-38" value="" style="html=1;jettySize=18;whiteSpace=wrap;fontSize=13;fontColor=default;align=center;strokeColor=#333333;strokeOpacity=100;strokeWidth=0.8;rounded=1;arcSize=24;edgeStyle=orthogonalEdgeStyle;startArrow=none;endArrow=block;endFill=1;exitX=0.5;exitY=0.987;exitPerimeter=0;entryX=1;entryY=0.5;entryPerimeter=0;lucidId=.DOw6S_m2f1S;" edge="1" parent="yd9bkMRgVebcNJ7dmM1L-2" source="yd9bkMRgVebcNJ7dmM1L-35" target="yd9bkMRgVebcNJ7dmM1L-40">
          <mxGeometry width="100" height="100" relative="1" as="geometry">
            <Array as="points" />
          </mxGeometry>
        </mxCell>
        <mxCell id="yd9bkMRgVebcNJ7dmM1L-39" value="Ja" style="text;html=1;resizable=0;labelBackgroundColor=default;align=center;verticalAlign=middle;fontColor=default;fontSize=13;" vertex="1" parent="yd9bkMRgVebcNJ7dmM1L-38">
          <mxGeometry relative="1" as="geometry" />
        </mxCell>
        <mxCell id="yd9bkMRgVebcNJ7dmM1L-40" value="Wordt doorgestuurd naar dashboard" style="html=1;overflow=block;blockSpacing=1;whiteSpace=wrap;rounded=1;arcSize=50;fontSize=13;fontColor=#ffffff;align=center;spacing=3.8;strokeOpacity=0;fillOpacity=100;fillColor=#3c41c2;strokeWidth=0.8;lucidId=aEOwHWZ7EaVp;" vertex="1" parent="yd9bkMRgVebcNJ7dmM1L-2">
          <mxGeometry x="1254" y="1805" width="165" height="75" as="geometry" />
        </mxCell>
        <mxCell id="yd9bkMRgVebcNJ7dmM1L-41" value="" style="html=1;jettySize=18;whiteSpace=wrap;fontSize=13;fontColor=default;align=center;strokeColor=#333333;strokeOpacity=100;strokeWidth=0.8;rounded=1;arcSize=24;edgeStyle=orthogonalEdgeStyle;startArrow=none;endArrow=block;endFill=1;exitX=0.984;exitY=0.5;exitPerimeter=0;entryX=0.5;entryY=0;entryPerimeter=0;lucidId=KEOwk7MX-yh8;" edge="1" parent="yd9bkMRgVebcNJ7dmM1L-2" source="yd9bkMRgVebcNJ7dmM1L-35" target="yd9bkMRgVebcNJ7dmM1L-33">
          <mxGeometry width="100" height="100" relative="1" as="geometry">
            <Array as="points">
              <mxPoint x="1820" y="1758" />
              <mxPoint x="1820" y="1675" />
              <mxPoint x="998" y="1675" />
            </Array>
          </mxGeometry>
        </mxCell>
        <mxCell id="yd9bkMRgVebcNJ7dmM1L-42" value="Nee" style="text;html=1;resizable=0;labelBackgroundColor=default;align=center;verticalAlign=middle;fontColor=default;fontSize=13;" vertex="1" parent="yd9bkMRgVebcNJ7dmM1L-41">
          <mxGeometry relative="1" as="geometry" />
        </mxCell>
        <mxCell id="yd9bkMRgVebcNJ7dmM1L-43" value="Maakt een storingsmelding" style="html=1;overflow=block;blockSpacing=1;whiteSpace=wrap;rounded=1;arcSize=50;fontSize=13;fontColor=#ffffff;align=center;spacing=3.8;strokeOpacity=0;fillOpacity=100;fillColor=#3c41c2;strokeWidth=0.8;lucidId=JHOwzWbKDxHY;" vertex="1" parent="yd9bkMRgVebcNJ7dmM1L-2">
          <mxGeometry x="923" y="1865" width="150" height="75" as="geometry" />
        </mxCell>
        <mxCell id="yd9bkMRgVebcNJ7dmM1L-44" value="" style="html=1;jettySize=18;whiteSpace=wrap;fontSize=13;strokeColor=#333333;strokeOpacity=100;strokeWidth=0.8;rounded=1;arcSize=24;edgeStyle=orthogonalEdgeStyle;startArrow=none;endArrow=block;endFill=1;exitX=0;exitY=0.5;exitPerimeter=0;entryX=0.5;entryY=0;entryPerimeter=0;lucidId=~HOwcZpZOdLJ;" edge="1" parent="yd9bkMRgVebcNJ7dmM1L-2" source="yd9bkMRgVebcNJ7dmM1L-40" target="yd9bkMRgVebcNJ7dmM1L-43">
          <mxGeometry width="100" height="100" relative="1" as="geometry">
            <Array as="points">
              <mxPoint x="1193" y="1863" />
              <mxPoint x="1193" y="1833" />
              <mxPoint x="1013" y="1833" />
            </Array>
          </mxGeometry>
        </mxCell>
        <mxCell id="yd9bkMRgVebcNJ7dmM1L-45" value="Melding opslaan" style="html=1;overflow=block;blockSpacing=1;whiteSpace=wrap;rounded=1;arcSize=50;fontSize=13;fontColor=#ffffff;align=center;spacing=3.8;strokeOpacity=0;fillOpacity=100;fillColor=#3c41c2;strokeWidth=0.8;lucidId=NLOwHiAgZ-Xj;" vertex="1" parent="yd9bkMRgVebcNJ7dmM1L-2">
          <mxGeometry x="1635" y="1940" width="150" height="60" as="geometry" />
        </mxCell>
        <mxCell id="yd9bkMRgVebcNJ7dmM1L-46" value="" style="html=1;jettySize=18;whiteSpace=wrap;fontSize=13;strokeColor=#333333;strokeOpacity=100;strokeWidth=0.8;rounded=1;arcSize=24;edgeStyle=orthogonalEdgeStyle;startArrow=none;endArrow=block;endFill=1;exitX=1;exitY=0.5;exitPerimeter=0;entryX=0;entryY=0.5;entryPerimeter=0;lucidId=GbPwP.uCrwIt;" edge="1" parent="yd9bkMRgVebcNJ7dmM1L-2" source="yd9bkMRgVebcNJ7dmM1L-43" target="yd9bkMRgVebcNJ7dmM1L-47">
          <mxGeometry width="100" height="100" relative="1" as="geometry">
            <Array as="points" />
          </mxGeometry>
        </mxCell>
        <mxCell id="yd9bkMRgVebcNJ7dmM1L-47" value="Stel een de storing in (status, medewerker, machine)" style="html=1;overflow=block;blockSpacing=1;whiteSpace=wrap;rounded=1;arcSize=50;fontSize=13;fontColor=#ffffff;align=center;spacing=3.8;strokeOpacity=0;fillOpacity=100;fillColor=#3c41c2;strokeWidth=0.8;lucidId=2ePwD~yUMpVm;" vertex="1" parent="yd9bkMRgVebcNJ7dmM1L-2">
          <mxGeometry x="1268" y="1933" width="165" height="75" as="geometry" />
        </mxCell>
        <mxCell id="yd9bkMRgVebcNJ7dmM1L-48" value="" style="html=1;overflow=block;blockSpacing=1;whiteSpace=wrap;fontSize=13;align=center;spacing=3.8;strokeOpacity=0;fillOpacity=0;rounded=1;absoluteArcSize=1;arcSize=12;fillColor=#ffffff;strokeWidth=0.8;lucidId=lgPwDl~DkY3o;" vertex="1" parent="yd9bkMRgVebcNJ7dmM1L-2">
          <mxGeometry x="945" y="2090" width="180" height="45" as="geometry" />
        </mxCell>
        <mxCell id="yd9bkMRgVebcNJ7dmM1L-49" value="" style="html=1;jettySize=18;whiteSpace=wrap;fontSize=13;strokeColor=#333333;strokeOpacity=100;strokeWidth=0.8;rounded=1;arcSize=24;edgeStyle=orthogonalEdgeStyle;startArrow=none;endArrow=block;endFill=1;exitX=1;exitY=0.5;exitPerimeter=0;entryX=0;entryY=0.5;entryPerimeter=0;lucidId=TgPwBhFTT9HO;" edge="1" parent="yd9bkMRgVebcNJ7dmM1L-2" source="yd9bkMRgVebcNJ7dmM1L-47" target="yd9bkMRgVebcNJ7dmM1L-45">
          <mxGeometry width="100" height="100" relative="1" as="geometry">
            <Array as="points" />
          </mxGeometry>
        </mxCell>
        <mxCell id="yd9bkMRgVebcNJ7dmM1L-50" value="Verwijderd storing" style="html=1;overflow=block;blockSpacing=1;whiteSpace=wrap;rounded=1;arcSize=50;fontSize=13;fontColor=#ffffff;align=center;spacing=3.8;strokeOpacity=0;fillOpacity=100;fillColor=#3c41c2;strokeWidth=0.8;lucidId=PiPwe.ns-Y8U;" vertex="1" parent="yd9bkMRgVebcNJ7dmM1L-2">
          <mxGeometry x="1605" y="2075" width="149" height="60" as="geometry" />
        </mxCell>
        <mxCell id="yd9bkMRgVebcNJ7dmM1L-51" value="Via dashboard klikt op verwijderen van storing" style="html=1;overflow=block;blockSpacing=1;whiteSpace=wrap;rounded=1;arcSize=50;fontSize=13;fontColor=#ffffff;align=center;spacing=3.8;strokeOpacity=0;fillOpacity=100;fillColor=#3c41c2;strokeWidth=0.8;lucidId=zjPw_vQ8ZJC1;" vertex="1" parent="yd9bkMRgVebcNJ7dmM1L-2">
          <mxGeometry x="923" y="2069" width="165" height="72" as="geometry" />
        </mxCell>
        <mxCell id="yd9bkMRgVebcNJ7dmM1L-52" value="" style="html=1;jettySize=18;whiteSpace=wrap;fontSize=13;strokeColor=#333333;strokeOpacity=100;strokeWidth=0.8;rounded=1;arcSize=24;edgeStyle=orthogonalEdgeStyle;startArrow=none;endArrow=block;endFill=1;exitX=1;exitY=0.5;exitPerimeter=0;entryX=0;entryY=0.5;entryPerimeter=0;lucidId=BkPw85Y-RKZr;" edge="1" parent="yd9bkMRgVebcNJ7dmM1L-2" source="yd9bkMRgVebcNJ7dmM1L-51" target="yd9bkMRgVebcNJ7dmM1L-53">
          <mxGeometry width="100" height="100" relative="1" as="geometry">
            <Array as="points" />
          </mxGeometry>
        </mxCell>
        <mxCell id="yd9bkMRgVebcNJ7dmM1L-53" value="Check of tie kan verwijderd worden" style="html=1;overflow=block;blockSpacing=1;whiteSpace=wrap;rounded=1;arcSize=50;fontSize=13;fontColor=#ffffff;align=center;spacing=3.8;strokeOpacity=0;fillOpacity=100;fillColor=#3c41c2;strokeWidth=0.8;lucidId=KkPwSl3_4fRw;" vertex="1" parent="yd9bkMRgVebcNJ7dmM1L-2">
          <mxGeometry x="1262" y="2075" width="149" height="60" as="geometry" />
        </mxCell>
        <mxCell id="yd9bkMRgVebcNJ7dmM1L-54" value="" style="html=1;jettySize=18;whiteSpace=wrap;fontSize=13;strokeColor=#333333;strokeOpacity=100;strokeWidth=0.8;rounded=1;arcSize=24;edgeStyle=orthogonalEdgeStyle;startArrow=none;endArrow=block;endFill=1;exitX=1;exitY=0.5;exitPerimeter=0;entryX=0;entryY=0.5;entryPerimeter=0;lucidId=6kPwC0wLBEe8;" edge="1" parent="yd9bkMRgVebcNJ7dmM1L-2" source="yd9bkMRgVebcNJ7dmM1L-53" target="yd9bkMRgVebcNJ7dmM1L-50">
          <mxGeometry width="100" height="100" relative="1" as="geometry">
            <Array as="points" />
          </mxGeometry>
        </mxCell>
        <mxCell id="yd9bkMRgVebcNJ7dmM1L-55" value="Future" parent="0" />
        <mxCell id="yd9bkMRgVebcNJ7dmM1L-56" value="" style="group;dropTarget=0;pointerEvents=0;container=1;collapsible=0;recursiveResize=0;" vertex="1" parent="yd9bkMRgVebcNJ7dmM1L-55">
          <mxGeometry x="30" y="70" as="geometry" />
        </mxCell>
      </root>
    </mxGraphModel>
  </diagram>
</mxfile>
